<svg width="26" height="26" viewBox="0 0 26 26" fill="none" xmlns="http://www.w3.org/2000/svg">
<path d="M11 0.75C5.35093 0.75 0.75 5.35093 0.75 11C0.75 16.6491 5.35093 21.25 11 21.25C13.3756 21.25 15.5637 20.4341 17.3038 19.0714L23.1145 24.8821C23.2293 25.0012 23.3666 25.0963 23.5184 25.1619C23.6711 25.2279 23.8354 25.2627 24.0017 25.2644C24.168 25.2661 24.3329 25.2346 24.4869 25.1718C24.6409 25.1089 24.7808 25.0159 24.8983 24.8983C25.0159 24.7808 25.1089 24.6409 25.1718 24.4869C25.2346 24.3329 25.2661 24.168 25.2644 24.0017C25.2627 23.8354 25.2279 23.6711 25.1619 23.5184C25.0963 23.3666 25.0012 23.2293 24.8821 23.1145L19.0714 17.3038C20.4341 15.5637 21.25 13.3756 21.25 11C21.25 5.35093 16.6491 0.75 11 0.75ZM11 3.25C15.2921 3.25 18.75 6.70795 18.75 11C18.75 15.2921 15.2921 18.75 11 18.75C6.70795 18.75 3.25 15.2921 3.25 11C3.25 6.70795 6.70795 3.25 11 3.25Z" fill="#4787DF" stroke="#4787DF" stroke-width="0.5"/>
</svg>
